<svg width="auto" height="36" viewBox="0 0 292.90057 87.52903" version="1.1" id="svg1" xml:space="preserve" xmlns="http://www.w3.org/2000/svg"><defs id="defs1" /><g id="layer1" transform="translate(41.45029,-104.7355)"><path style="fill:#534ab7;fill-opacity:1" d="m -25.955887,192.06705 c -7.089587,-1.05383 -12.9522,-6.37203 -14.873105,-13.49194 -0.542449,-2.01061 -0.876696,-53.43057 -0.374146,-57.55808 0.952324,-7.82158 6.713401,-14.25436 14.182904,-15.83656 2.797476,-0.59257 55.876895,-0.59372 58.215452,-0.001 6.59451,1.67066 12.003734,7.21999 13.459317,13.80793 0.718686,3.25276 0.628003,56.86424 -0.101007,59.71464 -1.513513,5.91778 -6.351113,10.97884 -12.274099,12.84108 l -2.153101,0.67695 -27.2520835,0.0409 c -14.9886465,0.0225 -27.9622055,-0.0646 -28.8301315,-0.19362 z m 32.3308425,-9.38122 c 4.9661905,-2.41454 8.1913325,-10.76811 4.1573485,-10.76811 -1.0136695,0 -1.4249654,0.56431 -1.8331274,2.51512 -2.0539121,9.81665 -13.2940073,7.07123 -13.5806483,-3.31711 -0.136427,-4.94431 -1.476887,-4.42354 11.3861472,-4.42354 15.3093215,0 14.2008135,1.07169 13.9573315,-13.49375 -0.336303,-20.11813 -15.4700955,-29.88991 -29.7986655,-19.24078 -6.7871435,5.04428 -11.2809825,24.00328 -5.6894795,24.00328 1.495855,0 1.601549,-0.40085 1.712226,-6.49373 0.234391,-12.90337 8.2376843,-20.23112 19.0392245,-17.43216 8.5437205,2.2139 11.3548345,7.41607 11.2417825,20.8037 l -0.06993,8.28157 -11.1335125,0.13229 -11.1335132,0.13229 -0.999974,0.76304 c -1.9029448,1.45205 -2.6460198,6.18776 -1.7324248,11.04095 1.2326338,6.548 8.5913229,10.35865 14.477219,7.49694 z M -15.035021,131.75689 c 1.136325,-1.05865 0.769886,-1.72288 -2.980013,-5.40175 -3.704126,-3.63396 -4.432309,-3.94744 -5.29486,-2.27945 -0.556997,1.07711 7e-4,1.93657 3.432894,5.29037 3.198955,3.12588 3.757147,3.4015 4.841979,2.39083 z m 38.609965,-2.43709 c 3.959098,-3.89615 4.562125,-5.26784 2.608627,-5.93377 -2.261796,-0.77102 -9.070961,7.21821 -7.243164,8.49845 1.062885,0.74448 1.540471,0.48019 4.634537,-2.56468 z M 3.0518485,124.71473 c 0.682981,-0.61809 0.735396,-9.404 0.06184,-10.36564 -1.739595,-2.48362 -3.0087751,-0.24592 -3.0136681,5.31342 -0.0046,5.28642 0.9284011,6.8834 2.9518281,5.05222 z m 61.5101295,31.38118 c -9.183632,-1.54096 -9.526321,-17.27866 -0.420286,-19.30129 6.869187,-1.52577 11.876561,0.9678 12.088741,6.01996 0.1943,4.62648 -0.59226,5.19399 -7.361285,5.31125 l -5.008445,0.0868 v 0.65398 c 0,2.57426 5.975856,4.03399 11.09473,2.71013 0.2812,-0.0727 0.458,0.36446 0.68463,1.69299 l 0.30553,1.79104 -1.34609,0.38728 c -2.968448,0.85405 -7.186373,1.1263 -10.037525,0.6479 z m 5.774848,-11.52805 c 1.601051,-1.60105 -0.09673,-4.14161 -2.742825,-4.10436 -2.713758,0.0382 -3.628258,0.78962 -3.915807,3.21752 l -0.155782,1.31534 h 3.192955 c 2.590151,0 3.273853,-0.0809 3.621459,-0.4285 z m 50.234604,11.44286 c -4.25761,-1.39703 -5.73476,-4.66144 -5.76223,-12.73415 -0.039,-11.45942 4.87316,-15.30234 16.93245,-13.24675 3.16052,0.53873 2.87544,0.24494 2.59714,2.67644 l -0.23121,2.02006 -4.81871,-0.0348 c -7.70208,-0.0556 -8.86532,1.28938 -8.47333,9.79743 0.279,6.05546 3.79514,8.72799 8.13266,6.18144 l 0.92605,-0.54368 0.0725,-4.41726 0.0725,-4.41726 h 2.77173 2.77173 v 7.40834 7.40833 h -2.11667 c -1.51616,0 -2.11708,-0.0938 -2.11814,-0.33073 -8.1e-4,-0.1819 -0.12679,-0.78198 -0.27995,-1.33351 l -0.27847,-1.00278 -0.8161,0.68671 c -2.33228,1.96248 -6.55533,2.80969 -9.38203,1.88217 z m 75.18407,-0.002 c -3.91066,-0.56412 -3.74494,-0.40462 -3.40043,-3.2728 l 0.16684,-1.38906 h 5.21533 c 6.70948,0 7.41096,-0.23435 7.41096,-2.47585 0,-1.72779 -0.88422,-2.3751 -5.10557,-3.73761 -7.32595,-2.36458 -10.10184,-6.80912 -7.43883,-11.9105 1.63773,-3.13733 9.79337,-4.64216 16.24857,-2.99809 l 1.45521,0.37062 -0.072,1.04915 c -0.0396,0.57704 -0.13304,1.42946 -0.20766,1.89428 l -0.13566,0.84512 -5.57088,0.0809 c -6.2742,0.0911 -6.58152,0.19593 -6.58152,2.24429 0,1.84123 0.89599,2.45805 5.68854,3.91611 6.00083,1.82567 7.65254,3.68196 7.65657,8.60489 0.005,6.09073 -4.93982,8.27728 -15.32948,6.77853 z m 21.69583,0.18512 c -1.54389,-0.40061 -2.31434,-2.22217 -1.63132,-3.85687 1.1278,-2.69921 4.93861,-1.81868 4.93861,1.14111 0,2.0061 -1.45087,3.19747 -3.30729,2.71576 z m 15.21354,-0.11739 c -9.24609,-1.53071 -11.06859,-14.72929 -2.57554,-18.65209 3.70435,-1.71097 9.06142,-0.94711 11.59752,1.65368 l 1.16448,1.19418 -0.77146,0.62129 c -1.64668,1.32614 -1.92657,1.37255 -2.87134,0.47607 -4.74553,-4.50291 -12.13072,-0.11548 -10.77754,6.40277 1.06032,5.10752 6.89357,7.13305 10.5886,3.67678 l 1.28193,-1.19909 1.3365,0.90005 1.3365,0.90006 -0.63583,0.86181 c -1.86403,2.52656 -5.7832,3.80859 -9.67382,3.16449 z M 86.060023,155.84616 c -4.33539,-0.75216 -4.47224,-1.20535 -4.47224,-14.81005 v -10.85642 h 2.74813 2.74812 l 0.19642,10.08829 c 0.24232,12.44602 -0.54236,11.07838 6.35618,11.07838 h 5.16967 l -0.0765,2.3151 -0.0764,2.31511 -5.68854,0.0403 c -3.1287,0.0222 -6.23588,-0.0546 -6.90484,-0.17071 z m 17.473747,0.1602 c -0.0648,-0.0648 -0.0859,-5.90223 -0.0468,-12.97219 l 0.0711,-12.85448 h 2.77316 2.77316 v 12.93628 12.93628 l -2.72641,0.0359 c -1.49953,0.0198 -2.77946,-0.017 -2.84427,-0.0818 z M 141.38362,143.161 v -12.98131 h 2.91042 2.91041 v 4.9009 4.9009 l 4.69636,-0.0722 4.69635,-0.0723 -0.0459,-4.82865 -0.0459,-4.82865 h 2.89018 2.89017 v 12.93245 12.93245 l -2.84427,-0.034 -2.84427,-0.034 -0.0584,-5.29167 c -0.0321,-2.91041 -0.0619,-5.50002 -0.0661,-5.75469 -0.007,-0.42303 -0.40758,-0.46302 -4.63796,-0.46302 -4.23038,0 -4.63088,0.04 -4.63796,0.46302 -0.004,0.25467 -0.034,2.84428 -0.0661,5.75469 l -0.0584,5.29167 -2.84427,0.0829 -2.84427,0.0829 z m 33.3375,2.17095 v -10.65434 h -3.96875 -3.96875 v -2.24896 -2.24896 h 10.71563 10.71562 v 2.24896 2.24896 h -3.83346 -3.83345 l -0.0692,10.63012 -0.0692,10.63011 -2.84427,0.0242 -2.84427,0.0242 z m 73.02588,-2.78299 -8.8e-4,-13.4276 h 1.85209 1.85208 v 13.48504 13.48504 l -1.85121,-0.0574 -1.8512,-0.0574 z" id="path1" /></g></svg>