<svg xmlns="http://www.w3.org/2000/svg" width="380" height="400">
  <rect width="380" height="400" rx="8" ry="8" fill="#f8f9fa"/>
  <text x="190" y="22" font-family="Arial,sans-serif" font-size="12" font-weight="bold" fill="#2d3340" text-anchor="middle">Diagrama Polar — BESTLED 200W</text>
  <text x="190" y="38" font-family="Arial,sans-serif" font-size="9" fill="#6b7180" text-anchor="middle">Distribución de Intensidad Luminosa (cd)</text>
  <circle cx="190" cy="200" r="29.0" fill="none" stroke="#e2e4e9" stroke-width="0.8" stroke-dasharray="3,3"/>
  <text x="193.0" y="169.0" font-family="Arial,sans-serif" font-size="7" fill="#6b7180">20%</text>
  <circle cx="190" cy="200" r="58.0" fill="none" stroke="#e2e4e9" stroke-width="0.8" stroke-dasharray="3,3"/>
  <text x="193.0" y="140.0" font-family="Arial,sans-serif" font-size="7" fill="#6b7180">40%</text>
  <circle cx="190" cy="200" r="87.0" fill="none" stroke="#e2e4e9" stroke-width="0.8" stroke-dasharray="3,3"/>
  <text x="193.0" y="111.0" font-family="Arial,sans-serif" font-size="7" fill="#6b7180">60%</text>
  <circle cx="190" cy="200" r="116.0" fill="none" stroke="#e2e4e9" stroke-width="0.8" stroke-dasharray="3,3"/>
  <text x="193.0" y="82.0" font-family="Arial,sans-serif" font-size="7" fill="#6b7180">80%</text>
  <circle cx="190" cy="200" r="145.0" fill="none" stroke="#e2e4e9" stroke-width="0.8" stroke-dasharray="3,3"/>
  <text x="193.0" y="53.0" font-family="Arial,sans-serif" font-size="7" fill="#6b7180">100%</text>
  <line x1="190" y1="200" x2="190.00" y2="345.00" stroke="#e2e4e9" stroke-width="0.8"/>
  <text x="190.0" y="359.0" font-family="Arial,sans-serif" font-size="8" fill="#6b7180" text-anchor="middle">0°</text>
  <line x1="190" y1="200" x2="227.53" y2="340.06" stroke="#e2e4e9" stroke-width="0.8"/>
  <line x1="190" y1="200" x2="152.47" y2="340.06" stroke="#e2e4e9" stroke-width="0.8"/>
  <text x="231.2" y="353.6" font-family="Arial,sans-serif" font-size="8" fill="#6b7180" text-anchor="middle">15°</text>
  <text x="148.8" y="353.6" font-family="Arial,sans-serif" font-size="8" fill="#6b7180" text-anchor="middle">15°</text>
  <line x1="190" y1="200" x2="262.50" y2="325.57" stroke="#e2e4e9" stroke-width="0.8"/>
  <line x1="190" y1="200" x2="117.50" y2="325.57" stroke="#e2e4e9" stroke-width="0.8"/>
  <text x="269.5" y="337.7" font-family="Arial,sans-serif" font-size="8" fill="#6b7180" text-anchor="middle">30°</text>
  <text x="110.5" y="337.7" font-family="Arial,sans-serif" font-size="8" fill="#6b7180" text-anchor="middle">30°</text>
  <line x1="190" y1="200" x2="292.53" y2="302.53" stroke="#e2e4e9" stroke-width="0.8"/>
  <line x1="190" y1="200" x2="87.47" y2="302.53" stroke="#e2e4e9" stroke-width="0.8"/>
  <text x="302.4" y="312.4" font-family="Arial,sans-serif" font-size="8" fill="#6b7180" text-anchor="middle">45°</text>
  <text x="77.6" y="312.4" font-family="Arial,sans-serif" font-size="8" fill="#6b7180" text-anchor="middle">45°</text>
  <line x1="190" y1="200" x2="315.57" y2="272.50" stroke="#e2e4e9" stroke-width="0.8"/>
  <line x1="190" y1="200" x2="64.43" y2="272.50" stroke="#e2e4e9" stroke-width="0.8"/>
  <text x="327.7" y="279.5" font-family="Arial,sans-serif" font-size="8" fill="#6b7180" text-anchor="middle">60°</text>
  <text x="52.3" y="279.5" font-family="Arial,sans-serif" font-size="8" fill="#6b7180" text-anchor="middle">60°</text>
  <line x1="190" y1="200" x2="330.06" y2="237.53" stroke="#e2e4e9" stroke-width="0.8"/>
  <line x1="190" y1="200" x2="49.94" y2="237.53" stroke="#e2e4e9" stroke-width="0.8"/>
  <text x="343.6" y="241.2" font-family="Arial,sans-serif" font-size="8" fill="#6b7180" text-anchor="middle">75°</text>
  <text x="36.4" y="241.2" font-family="Arial,sans-serif" font-size="8" fill="#6b7180" text-anchor="middle">75°</text>
  <line x1="190" y1="200" x2="335.00" y2="200.00" stroke="#e2e4e9" stroke-width="0.8"/>
  <line x1="190" y1="200" x2="45.00" y2="200.00" stroke="#e2e4e9" stroke-width="0.8"/>
  <text x="349.0" y="200.0" font-family="Arial,sans-serif" font-size="8" fill="#6b7180" text-anchor="middle">90°</text>
  <text x="31.0" y="200.0" font-family="Arial,sans-serif" font-size="8" fill="#6b7180" text-anchor="middle">90°</text>
  <line x1="45" y1="200" x2="335" y2="200" stroke="#e2e4e9" stroke-width="1.0"/>
  <line x1="190" y1="200" x2="190" y2="345" stroke="#e2e4e9" stroke-width="1.0" stroke-dasharray="4,2"/>
  <polyline points="190.00,200.00 189.71,200.03 188.57,200.25 184.68,201.43 176.65,204.86 165.03,211.64 151.70,222.11 138.45,236.10 128.02,252.01 121.51,268.49 119.35,284.20 120.97,298.59 125.76,311.26 133.13,321.95 142.49,330.53 153.30,336.98 165.05,341.51 177.39,344.16 190.00,345.00 190.00,345.00 202.57,343.73 214.73,340.23 226.10,334.74 236.32,327.26 245.03,318.01 251.77,306.99 256.12,294.43 257.67,280.64 256.03,266.03 250.87,251.08 242.74,236.93 232.44,224.51 221.28,214.58 210.71,207.54 201.49,203.08 194.57,200.81 191.16,200.10 190.00,200.00" fill="none" stroke="#1b85e8" stroke-width="1.8" stroke-dasharray="5,3" opacity="0.9"/>
  <polyline points="190.00,200.00 189.71,200.03 188.57,200.25 184.68,201.43 176.65,204.86 165.03,211.64 151.70,222.11 138.45,236.10 128.02,252.01 121.51,268.49 119.35,284.20 120.97,298.59 125.76,311.26 133.13,321.95 142.49,330.53 153.30,336.98 165.05,341.51 177.39,344.16 190.00,345.00 190.00,345.00 202.61,344.16 214.95,341.51 226.70,336.98 237.51,330.53 246.87,321.95 254.24,311.26 259.03,298.59 260.65,284.20 258.49,268.49 251.98,252.01 241.55,236.10 228.30,222.11 214.97,211.64 203.35,204.86 195.32,201.43 191.43,200.25 190.29,200.03 190.00,200.00" fill="#6a19d4" fill-opacity="0.08" stroke="#6a19d4" stroke-width="2.2"/>
  <circle cx="190" cy="200" r="3" fill="#2d3340"/>
  <line x1="30" y1="342" x2="50" y2="342" stroke="#6a19d4" stroke-width="2.2"/>
  <text x="54" y="346" font-family="Arial,sans-serif" font-size="9" fill="#2d3340">C0-C180 (Longitudinal)</text>
  <line x1="200" y1="342" x2="220" y2="342" stroke="#1b85e8" stroke-width="1.8" stroke-dasharray="5,3"/>
  <text x="224" y="346" font-family="Arial,sans-serif" font-size="9" fill="#2d3340">C90-C270 (Transversal)</text>
  <text x="190" y="380" font-family="Arial,sans-serif" font-size="8" fill="#6b7180" text-anchor="middle">Intensidad máx: 135042 cd  |  Laboratorio VOLNIC — GON-2000 — 2024/03/08</text>
</svg>